<svg width="18" height="19" viewBox="0 0 18 19" fill="none" xmlns="http://www.w3.org/2000/svg">
<path fill-rule="evenodd" clip-rule="evenodd" d="M7.06963 16.6495C7.07434 16.762 7.06233 16.8717 7.03891 16.9827C6.99776 17.1779 6.91828 17.3844 6.80578 17.5752C6.48598 18.1177 5.9427 18.4796 5.24325 18.4796C3.59553 18.4796 2.94885 17.6623 2.13915 15.6157C1.59077 14.2296 1.33206 13.9027 0.716309 13.9027L0.716309 12.0719C2.36403 12.0719 3.01071 12.8892 3.82041 14.9358C4.36879 16.3219 4.6275 16.6489 5.24325 16.6489C5.24325 16.3832 5.23965 16.148 5.23208 15.8293C5.21434 15.0826 5.2123 14.9301 5.24452 14.7305C5.2574 14.2947 5.36868 13.9855 5.59182 13.6785C3.57117 13.2338 2.20832 12.3154 1.42611 10.8256L1.13309 10.1289C0.847631 9.29948 0.716309 8.35968 0.716309 7.27431C0.716309 6.0243 1.09326 4.90663 1.79736 3.97237C1.57772 3.08432 1.6078 1.99931 2.09278 0.773955L2.25125 0.373561L2.65752 0.24217C2.71192 0.224578 2.77805 0.20869 2.85573 0.196362C3.64684 0.0708268 4.77254 0.370342 6.2442 1.32341C7.11176 1.12008 8.02537 1.01742 8.94518 1.01742C9.76715 1.01742 10.5846 1.1012 11.3652 1.26637C12.797 0.359839 13.8917 0.0755139 14.6616 0.196523C14.7384 0.208594 14.8038 0.224179 14.8577 0.241474L15.2665 0.372544L15.4252 0.77538C15.8495 1.85255 15.9223 2.84525 15.7679 3.71388C16.5773 4.69583 17.0133 5.90302 17.0133 7.27431C17.0133 8.43038 16.9314 9.29968 16.6959 10.1454L16.4473 10.835C15.7967 12.3232 14.3618 13.2519 12.1491 13.6943C12.3791 14.0162 12.4864 14.3431 12.4864 14.8181V15.7335C12.4864 16.1771 12.4864 16.1907 12.4854 16.6489C12.4874 16.6818 12.4901 16.6979 12.4931 16.7079C12.4924 16.7082 12.4864 18.4796 12.4864 18.4796C11.7152 18.4796 11.1417 18.0994 10.8597 17.4995C10.7135 17.1886 10.6698 16.8916 10.6756 16.6359V14.8181C10.6756 14.7413 10.6729 14.7369 10.4881 14.55C9.99391 14.0504 9.77019 13.6734 9.77019 12.9873V12.1593L10.5851 12.0765C13.0109 11.8302 14.3302 11.1491 14.7676 10.1541L14.9721 9.58911C15.1347 8.99834 15.2025 8.27888 15.2025 7.27431C15.2025 6.20689 14.8339 5.32512 14.1369 4.62064L13.7537 4.23341L13.9101 3.709C14.049 3.24312 14.082 2.69186 13.9351 2.06309C13.9107 2.06934 13.8853 2.07616 13.8589 2.08358C13.3741 2.22003 12.7689 2.51283 12.0395 3.00574L11.7068 3.23056L11.3185 3.1332C10.5673 2.94488 9.7601 2.84819 8.94518 2.84819C8.03897 2.84819 7.14318 2.96476 6.31565 3.19285L5.91179 3.30417L5.56631 3.06521C4.81195 2.54346 4.18526 2.23318 3.68275 2.08823C3.64686 2.07788 3.61268 2.06862 3.5802 2.06036C3.40488 2.78808 3.47422 3.38596 3.65179 3.8346L3.86469 4.37252L3.47492 4.79727C2.85384 5.47409 2.52709 6.29772 2.52709 7.27431C2.52709 8.16842 2.63061 8.9093 2.82033 9.46738L3.05725 10.0344C3.64953 11.1581 4.90754 11.8341 7.15052 12.0771L7.95942 12.1648V12.9873C7.95942 13.6734 7.7357 14.0504 7.24154 14.55C7.05666 14.7369 7.05403 14.7413 7.05403 14.8181L7.03842 14.9873C7.0281 15.0428 7.0281 15.1861 7.04234 15.7854C7.04889 16.061 7.05262 16.2791 7.0537 16.5071C7.06452 16.5543 7.06615 16.5847 7.06963 16.6495Z" fill="#DE907B"/>
</svg>
