<svg width="19" height="21" viewBox="0 0 19 21" fill="none" xmlns="http://www.w3.org/2000/svg">
<path fill-rule="evenodd" clip-rule="evenodd" d="M7.26723 18.837C7.27243 18.9599 7.25917 19.0797 7.2333 19.2011C7.18785 19.4143 7.10007 19.6399 6.97581 19.8483C6.62259 20.4409 6.02254 20.8363 5.25 20.8363C3.4301 20.8363 2.71584 19.9435 1.82152 17.7077C1.21584 16.1935 0.930098 15.8363 0.25 15.8363L0.25 13.8363C2.0699 13.8363 2.78416 14.7291 3.67848 16.9649C4.28416 18.4791 4.5699 18.8363 5.25 18.8363C5.25 18.5461 5.24603 18.2891 5.23766 17.941C5.21806 17.1252 5.21581 16.9587 5.2514 16.7406C5.26562 16.2645 5.38853 15.9267 5.635 15.5914C3.40319 15.1056 1.89792 14.1022 1.03397 12.4748L0.710337 11.7137C0.395045 10.8076 0.25 9.78091 0.25 8.5952C0.25 7.22964 0.666346 6.00867 1.44402 4.98804C1.20143 4.0179 1.23465 2.8326 1.77031 1.49398L1.94534 1.05657L2.39407 0.913034C2.45415 0.893816 2.52718 0.876459 2.61299 0.862992C3.48676 0.725852 4.73011 1.05305 6.35555 2.09422C7.31377 1.87209 8.32285 1.75995 9.33877 1.75995C10.2466 1.75995 11.1495 1.85147 12.0116 2.03191C13.5931 1.04158 14.8022 0.730973 15.6525 0.863168C15.7373 0.876355 15.8096 0.893379 15.8692 0.912274L16.3207 1.05546L16.496 1.49553C16.9646 2.67227 17.045 3.75674 16.8745 4.70566C17.7685 5.77838 18.25 7.09715 18.25 8.5952C18.25 9.85814 18.1595 10.8078 17.8994 11.7317L17.6249 12.485C16.9063 14.1107 15.3215 15.1254 12.8775 15.6086C13.1316 15.9603 13.25 16.3174 13.25 16.8363V17.8363C13.25 18.3209 13.25 18.3358 13.2489 18.8363C13.2512 18.8722 13.2542 18.8898 13.2574 18.9008L13.25 20.8363C12.3982 20.8363 11.7649 20.4209 11.4534 19.7656C11.2919 19.4259 11.2436 19.1015 11.25 18.8221V16.8363C11.25 16.7525 11.2471 16.7476 11.0429 16.5434C10.4971 15.9976 10.25 15.5858 10.25 14.8363V13.9317L11.1501 13.8413C13.8293 13.5722 15.2865 12.8282 15.7697 11.7412L15.9955 11.124C16.1751 10.4786 16.25 9.69263 16.25 8.5952C16.25 7.42911 15.8429 6.46584 15.073 5.69623L14.6498 5.27322L14.8225 4.70033C14.976 4.19139 15.0124 3.58916 14.8501 2.90227C14.8231 2.90911 14.7951 2.91655 14.766 2.92466C14.2305 3.07372 13.562 3.39359 12.7564 3.93207L12.389 4.17767L11.9601 4.0713C11.1304 3.86557 10.2389 3.75995 9.33877 3.75995C8.33786 3.75995 7.34846 3.8873 6.43446 4.13647L5.98841 4.25807L5.60682 3.99703C4.77363 3.42705 4.08145 3.08808 3.52642 2.92974C3.48678 2.91843 3.44904 2.90831 3.41316 2.8993C3.21952 3.69428 3.29611 4.34743 3.49223 4.83753L3.72738 5.42519L3.29689 5.88919C2.6109 6.62857 2.25 7.52834 2.25 8.5952C2.25 9.57196 2.36434 10.3813 2.57388 10.991L2.83557 11.6104C3.48974 12.838 4.8792 13.5764 7.35658 13.842L8.25 13.9378V14.8363C8.25 15.5858 8.00291 15.9976 7.45711 16.5434C7.25291 16.7476 7.25 16.7525 7.25 16.8363L7.23276 17.0212C7.22136 17.0818 7.22136 17.2384 7.23709 17.893C7.24432 18.1941 7.24844 18.4324 7.24963 18.6814C7.26158 18.733 7.26339 18.7662 7.26723 18.837Z" fill="#DE907B"/>
</svg>
