<svg width="18" height="18" viewBox="0 0 18 18" fill="none" xmlns="http://www.w3.org/2000/svg">
<path fill-rule="evenodd" clip-rule="evenodd" d="M2.21575 4C3.1717 4 3.94664 3.2165 3.94664 2.25C3.94664 1.2835 3.1717 0.5 2.21575 0.5C1.25981 0.5 0.484863 1.2835 0.484863 2.25C0.484863 3.2165 1.25981 4 2.21575 4ZM8.19104 6.54126C9.02724 6.02695 9.97404 5.75 10.8702 5.75H12.6011C15.0139 5.75 17.7938 7.75756 17.7938 11V18H14.332V11C14.332 9.99244 13.3039 9.25 12.6011 9.25H10.8702C10.1674 9.25 9.13931 9.99244 9.13931 11V18H5.67753V5.75H7.40842L8.19104 6.54126ZM0.484863 5.75V18H3.94664V5.75H0.484863Z" fill="#DE907B"/>
</svg>
